# xmcd
#
# Track frame offsets:
# 150
# 23888
# 58852
# 94261
# 120621
# 146648
# 172283
# 197015
#
# Disc length: 2920 seconds
#
#
# Revision: 1
# Processed by: cddbd v1.5.2PL0 Copyright (c) Steve Scherf et al.
# Submitted via: FreeRIP 2.951 
#
DISCID=760b6608
DTITLE=Laco Deczi - Celula New York Land
DYEAR=2005
DGENRE=Jazz
TTITLE0=Bodega
TTITLE1=Dimo
TTITLE2=Neptun
TTITLE3=Amati
TTITLE4=Plostica
TTITLE5=Cha - Cha
TTITLE6=Land
TTITLE7=Morgan
EXTD=YEAR: 2005
EXTT0=
EXTT1=
EXTT2=
EXTT3=
EXTT4=
EXTT5=
EXTT6=
EXTT7=
PLAYORDER=
